# xmcd
#
# Track frame offsets:
#	150
#	10905
#	18155
#	30795
#	45297
#	60680
#	72112
#	87157
#	100117
#	113287
#	124285
#	133807
#	158482
#	170020
#	182180
#	194102
#	223530
#	233937
#	247347
#
# Disc length: 3471 seconds
#
# Revision: 3
# Processed by: cddbd v1.5.2PL0 Copyright (c) Steve Scherf et al.
# Submitted via: audiograbber 1.83.01
#
DISCID=fb0d8d13
DTITLE=Sammy Davis - Greatest Hits  
DYEAR=1900
DGENRE=Oldies
TTITLE0=After Today
TTITLE1=I'm A Brass Band
TTITLE2=Hey There
TTITLE3=Candy Man
TTITLE4=What Kind Of Fool Am I?
TTITLE5=Fabulous Places
TTITLE6=That Old Black Magic
TTITLE7=Where Are The Words
TTITLE8=New York City Blues
TTITLE9=I'm Always Chasing Rainbows
TTITLE10=Something's Gotta Give
TTITLE11=All The Good Things In Life
TTITLE12=People Tree
TTITLE13=The Good Life
TTITLE14=Please Don't Take Your Time
TTITLE15=Come Back To Me - Birth Of The Blues
TTITLE16=At The Crossroads
TTITLE17=I've Gotta Be Me
TTITLE18=She Believes In Me
EXTD=
EXTT0=
EXTT1=
EXTT2=
EXTT3=
EXTT4=
EXTT5=
EXTT6=
EXTT7=
EXTT8=
EXTT9=
EXTT10=
EXTT11=
EXTT12=
EXTT13=
EXTT14=
EXTT15=
EXTT16=
EXTT17=
EXTT18=
PLAYORDER=
